PathFileType	4	(X/Y/Z)	s03c0303.trc
DataRate	CameraRate	NumFrames	NumMarkers	Units	OrigDataRate	OrigDataStartFrame	OrigNumFrames
200	200	6	50	mm	200	1000	2000
Frame#	Time	racr			lacr			c7			jug			rlel			rdr			llel			ldr			s2			lic			ric			lasi			rasi			rpsi			lpsi			rgt			lgt			rth1			rth2			rth3			rth4			rlfc			rmfc			rsh1			rsh2			rsh3			rsh4			rlmal			rcal			rtoe			rmt5			rmt1			lth1			lth2			lth4			lth3			llfc			lmfc			lsh1			lsh2			lsh3			lsh4			llmal			lcal			ltoe			lmt1			lmt5			SBIKE			LBIKE			RBIKE			
		X1	Y1	Z1	X2	Y2	Z2	X3	Y3	Z3	X4	Y4	Z4	X5	Y5	Z5	X6	Y6	Z6	X7	Y7	Z7	X8	Y8	Z8	X9	Y9	Z9	X10	Y10	Z10	X11	Y11	Z11	X12	Y12	Z12	X13	Y13	Z13	X14	Y14	Z14	X15	Y15	Z15	X16	Y16	Z16	X17	Y17	Z17	X18	Y18	Z18	X19	Y19	Z19	X20	Y20	Z20	X21	Y21	Z21	X22	Y22	Z22	X23	Y23	Z23	X24	Y24	Z24	X25	Y25	Z25	X26	Y26	Z26	X27	Y27	Z27	X28	Y28	Z28	X29	Y29	Z29	X30	Y30	Z30	X31	Y31	Z31	X32	Y32	Z32	X33	Y33	Z33	X34	Y34	Z34	X35	Y35	Z35	X36	Y36	Z36	X37	Y37	Z37	X38	Y38	Z38	X39	Y39	Z39	X40	Y40	Z40	X41	Y41	Z41	X42	Y42	Z42	X43	Y43	Z43	X44	Y44	Z44	X45	Y45	Z45	X46	Y46	Z46	X47	Y47	Z47	X48	Y48	Z48	X49	Y49	Z49	X50	Y50	Z50	
1000	5.0000	778.804121	1424.121659	-123.738796	731.488250	1462.733439	-442.675461	708.549860	1534.629241	-270.257750	694.243943	1354.276439	-286.433987	660.851900	1191.717928	15.002547	762.901328	938.585232	-58.266327	662.743413	1196.028682	-527.280454	748.416769	922.680428	-431.991104	167.844091	1284.127861	-213.622736	319.666625	1326.678150	-412.755784	363.162637	1274.196464	-56.539006	346.634420	1248.872388	-379.652783	379.023533	1211.325507	-113.459018	206.159248	1323.608564	-164.569550	200.072765	1334.901845	-247.859307	268.121997	1157.670566	-50.570300	280.560791	1233.992945	-440.232580	277.120140	1012.649803	-38.527542	309.795026	929.778847	-40.045762	300.119518	845.076985	-50.822864	345.475769	935.260812	-48.677189	305.126007	721.293107	-91.289243	307.975894	703.154712	-208.419989	254.145017	568.216191	-54.296200	253.975673	479.005679	-62.481264	210.171815	402.553013	-58.461242	283.179980	472.232156	-87.238861	165.514603	279.388738	-72.691514	96.619292	271.279814	-99.735011	364.937649	112.225020	-122.644015	257.222666	154.615467	-43.754674	282.824767	163.848035	-157.689513	381.327680	1127.540715	-482.620990	456.420884	1086.304875	-495.331280	481.914802	1109.517163	-481.883399	501.118997	1009.627855	-506.523681	601.727438	915.145943	-500.142189	610.556494	897.103100	-369.191629	462.497884	810.325611	-503.913982	412.324672	746.807122	-477.458405	329.383659	712.141437	-464.799724	433.911247	725.146204	-453.632406	226.793443	644.559480	-436.877814	148.966126	652.334236	-389.080388	375.707770	445.622786	-355.223312	299.756311	506.810357	-323.140852	276.821937	499.291692	-439.392699	-120.157441	1018.134723	-241.241853	-14.231739	80.730653	-437.498834	-14.233024	80.492347	-37.181675	
1001	5.0050	779.417832	1425.754250	-126.400177	729.039860	1465.368701	-444.696150	707.431924	1536.611049	-272.217157	693.839101	1355.869003	-289.172117	663.721511	1193.161382	13.902054	763.688344	938.421042	-58.188669	661.175680	1196.974898	-526.459269	748.431040	923.568564	-431.385998	166.469701	1285.688924	-211.910892	317.193738	1329.172829	-411.589709	365.165862	1273.905044	-57.076770	345.157357	1251.098904	-379.047561	380.193793	1211.111769	-114.116317	204.747464	1325.452462	-159.253323	198.455492	1337.202692	-242.052107	269.653686	1158.209456	-49.511020	279.483060	1236.449856	-439.213625	277.366924	1014.162109	-37.762578	309.550750	931.053054	-39.359234	299.191384	846.361937	-49.947942	345.093944	936.334212	-48.437515	302.673011	722.061186	-90.535321	305.995276	704.375222	-208.366472	250.418628	569.920630	-53.806294	249.082975	480.795242	-62.260330	204.519842	404.813110	-57.807417	278.125060	473.623635	-86.948966	158.479111	282.172909	-72.069708	89.445012	275.337166	-99.193142	354.302535	111.061426	-122.622005	247.633604	155.544989	-43.693643	273.078875	164.069845	-157.588493	380.780678	1128.378712	-480.287822	456.200632	1087.867562	-493.175788	481.622831	1111.974979	-481.124483	502.142494	1011.853255	-503.162359	604.123900	920.019714	-497.917828	614.118574	902.281650	-366.179687	467.064238	812.549789	-502.723358	417.660463	748.195881	-475.856586	334.950906	712.755225	-464.311576	439.286127	727.233073	-452.157131	233.094769	643.429928	-436.404361	154.757077	649.129421	-388.952573	386.617252	448.136774	-355.566809	308.994881	507.342205	-323.624291	286.730274	499.317900	-438.943069	-120.185044	1018.141481	-241.432014	-14.223778	80.755646	-437.519601	-14.221427	80.504029	-37.187358	
1002	5.0100	779.905521	1427.552855	-129.140186	726.660597	1468.008868	-446.604310	706.403398	1538.688272	-274.197994	693.535256	1358.278591	-291.815434	666.337029	1194.680257	12.454316	764.214831	938.451473	-58.607199	659.657455	1198.035225	-525.468723	748.635984	924.482392	-430.695157	166.150357	1287.326622	-211.158244	314.826266	1331.915107	-410.465282	366.661703	1274.416991	-57.580234	343.571329	1253.796843	-378.804368	381.122381	1211.988853	-114.820495	206.813484	1326.352514	-159.672874	199.489002	1337.913099	-242.809776	271.017894	1159.408673	-48.602234	278.531642	1238.865190	-438.533168	277.906461	1015.928163	-37.096249	309.875481	932.716349	-38.838722	299.116381	848.149821	-49.229362	345.412072	937.933943	-48.257238	301.259722	723.140914	-89.491064	305.149368	706.066286	-208.049978	247.197133	571.984009	-53.191812	244.579303	482.928826	-61.894816	199.082377	407.540800	-57.227730	273.555926	475.358053	-86.583093	151.406098	285.432993	-71.711383	81.749325	280.048706	-98.719976	343.634808	110.521078	-122.590237	237.873971	157.145542	-43.617606	263.440052	165.166304	-157.424822	380.492965	1129.626806	-478.150386	456.212574	1089.786076	-491.021403	481.593695	1114.276639	-479.554169	503.099009	1013.744971	-499.143344	605.956854	924.568511	-495.547419	617.142720	907.331997	-363.367364	471.054322	814.550141	-501.322509	422.368155	749.582727	-474.586385	340.089401	713.013811	-463.342384	444.151208	729.056074	-450.746250	239.181056	641.633715	-435.951055	160.372537	645.041350	-388.623033	397.634490	450.137426	-355.608458	319.827094	507.906806	-322.026410	296.365163	498.441849	-437.933858	-120.268917	1018.144967	-241.470318	-14.247952	80.786521	-437.510861	-14.242836	80.518696	-37.187909	
1003	5.0150	780.465611	1429.463121	-131.868700	724.504094	1470.623747	-448.530577	705.438144	1540.811136	-276.133555	693.059319	1360.821436	-294.401611	668.792473	1196.170957	10.633380	765.660239	938.515540	-58.170950	657.982272	1199.078745	-524.238282	748.964339	925.707642	-430.221172	166.483101	1289.393812	-209.192599	312.532666	1335.132704	-409.578948	367.592847	1275.763347	-58.217425	342.139212	1256.636874	-378.607939	381.867661	1213.582825	-115.309094	206.977991	1328.432156	-157.958001	199.267831	1339.834338	-242.248777	272.143760	1161.154779	-47.832695	277.451446	1241.381138	-437.723833	278.655552	1017.981939	-36.586300	310.706818	934.812298	-38.509407	299.904126	850.213619	-48.663139	346.121728	940.074748	-48.202853	300.980946	724.782844	-87.967910	305.123464	708.114662	-207.355696	244.709527	574.378233	-52.463414	240.893431	485.523129	-61.169545	193.887332	410.755904	-56.735981	269.946022	477.709622	-85.614491	144.259688	289.587723	-71.389378	74.913939	285.285643	-99.135493	333.090352	110.911919	-122.431238	228.109532	159.617557	-43.619529	253.790533	166.871582	-157.389419	380.329974	1131.117952	-476.638506	456.418036	1091.962760	-489.353961	481.520147	1116.663513	-477.951236	503.795574	1016.406090	-497.507311	607.398555	928.764047	-493.026839	619.412414	911.112621	-360.979402	474.474046	816.265770	-499.466416	426.603791	750.622669	-473.133499	344.740453	712.943130	-462.183020	448.629226	730.204592	-449.435180	245.044897	638.953508	-435.398761	166.063737	639.773047	-388.496681	408.623199	451.442190	-354.920717	330.371840	508.192930	-320.072320	305.794204	497.260831	-437.979281	-120.461558	1018.148941	-241.445949	-14.265764	80.819517	-437.516947	-14.265711	80.545858	-37.189770	
1004	5.0200	780.865398	1431.419548	-134.657600	722.420034	1473.156747	-450.453052	704.593981	1543.051302	-277.975908	692.055901	1363.132470	-296.094345	671.104643	1197.640146	8.495546	766.328257	938.689730	-58.445801	656.216808	1200.276958	-522.862855	749.264130	927.032964	-429.601446	166.754587	1291.565189	-207.751937	310.351028	1338.659268	-408.864163	368.095639	1277.887441	-58.224027	340.711707	1259.710351	-378.640423	382.246028	1215.743481	-115.746547	206.941722	1330.835469	-156.579697	198.954604	1342.588416	-241.067064	272.994023	1163.412615	-47.093179	276.240054	1243.984878	-436.786001	279.729308	1020.192917	-36.236357	312.100464	937.288219	-38.340948	301.760317	852.465816	-48.318378	347.429659	942.614222	-48.103029	301.578220	726.751457	-86.449595	305.889138	710.220594	-206.230581	242.825755	576.970713	-51.717429	237.370217	488.417688	-60.605725	189.005481	414.301376	-56.336141	266.245883	479.849107	-85.145605	137.083037	294.248121	-71.428847	67.829365	291.158996	-99.327424	322.568321	112.336779	-121.885385	218.574962	162.794798	-43.575150	244.326525	169.219845	-157.154780	380.257260	1133.060635	-475.377453	456.570279	1094.190188	-487.801039	481.568722	1119.025113	-476.333479	504.207500	1018.869710	-495.846421	608.501672	932.387193	-490.232374	620.746049	914.299241	-359.634805	477.356565	817.700542	-497.340465	430.453228	751.100714	-471.658065	349.115945	712.221944	-461.077363	452.722609	730.743544	-448.171995	250.662319	635.397511	-434.994740	171.393259	633.942784	-388.144302	418.979309	452.277458	-355.030282	338.594557	506.302560	-320.027817	314.906526	495.338106	-438.049228	-120.600788	1018.140284	-241.507431	-14.292468	80.828609	-437.539650	-14.286133	80.575824	-37.181264	
1005	5.0250	781.231026	1433.427382	-137.350480	720.530870	1475.642744	-452.454597	703.835626	1545.250302	-279.728065	691.181985	1365.405134	-297.760791	673.192510	1198.959676	6.075587	766.670343	938.460081	-59.664873	654.291713	1201.631507	-521.366687	749.763610	928.549799	-429.218844	166.253485	1294.381694	-206.203421	308.327055	1342.337393	-408.045952	368.296354	1280.545648	-57.737730	339.342082	1262.730593	-378.564849	382.350607	1218.700352	-115.829788	206.810645	1333.717384	-155.880013	198.590803	1345.125044	-239.577319	273.542620	1166.425424	-46.326227	275.440554	1246.397336	-436.130027	281.076952	1022.743738	-36.027511	314.065292	940.104393	-38.315937	304.283272	855.169147	-48.252721	349.318524	945.679829	-48.127258	303.204713	729.133704	-84.907905	306.555933	712.844345	-205.395766	241.707339	579.774280	-50.725044	234.310086	491.366594	-60.042489	184.478171	418.377593	-55.973921	262.035088	482.421760	-84.813877	130.040588	300.156323	-70.645464	61.059012	297.920503	-99.722849	312.079766	114.142818	-121.639358	208.728429	166.372435	-43.863089	234.803347	172.300009	-157.361198	380.169799	1135.022531	-474.267132	456.643081	1096.330835	-485.964495	481.380101	1121.144234	-474.126222	504.549624	1021.056586	-493.481693	609.279108	935.531721	-487.341248	621.330840	916.885500	-356.513972	479.756672	818.636876	-495.060859	433.897406	751.005678	-470.240218	353.123770	710.808574	-459.985422	456.534624	730.695706	-446.955720	255.871738	630.832512	-434.751452	176.333664	627.048965	-387.880399	429.295437	452.666201	-355.169967	347.177553	504.282353	-320.443805	324.147936	491.706541	-436.149465	-120.738055	1018.189065	-241.364573	-14.304667	80.873515	-437.494700	-14.283470	80.621127	-37.132285	
